<?xml version="1.0" encoding="UTF-8" standalone="no"?>
<!DOCTYPE svg PUBLIC "-//W3C//DTD SVG 1.1//EN"
 "http://www.w3.org/Graphics/SVG/1.1/DTD/svg11.dtd">
<!-- Generated by graphviz version 2.43.0 (0)
 -->
<!-- Title: %3 Pages: 1 -->
<svg width="328pt" height="305pt"
 viewBox="0.00 0.00 327.73 305.00" xmlns="http://www.w3.org/2000/svg" xmlns:xlink="http://www.w3.org/1999/xlink">
<g id="graph0" class="graph" transform="scale(1 1) rotate(0) translate(4 301)">
<title>%3</title>
<polygon fill="white" stroke="transparent" points="-4,4 -4,-301 323.73,-301 323.73,4 -4,4"/>
<!-- 1001 -->
<g id="node1" class="node">
<title>1001</title>
<ellipse fill="none" stroke="black" cx="203.39" cy="-279" rx="116.18" ry="18"/>
<text text-anchor="middle" x="203.39" y="-275.3" font-family="Times,serif" font-size="14.00">Crowther, Tonicha (45)</text>
</g>
<!-- 1002 -->
<g id="node2" class="node">
<title>1002</title>
<ellipse fill="none" stroke="black" cx="101.39" cy="-192" rx="101.28" ry="18"/>
<text text-anchor="middle" x="101.39" y="-188.3" font-family="Times,serif" font-size="14.00">Sierra, Samual (29)</text>
</g>
<!-- 1001&#45;&gt;1002 -->
<g id="edge1" class="edge">
<title>1001&#45;&gt;1002</title>
<path fill="none" stroke="black" d="M183.24,-261.21C167.87,-248.4 146.52,-230.61 129.48,-216.4"/>
<polygon fill="black" stroke="black" points="131.42,-213.47 121.5,-209.76 126.94,-218.85 131.42,-213.47"/>
<text text-anchor="middle" x="173.39" y="-231.8" font-family="Times,serif" font-size="14.00">2, 3</text>
</g>
<!-- 1003 -->
<g id="node3" class="node">
<title>1003</title>
<ellipse fill="none" stroke="black" cx="169.39" cy="-105" rx="100.18" ry="18"/>
<text text-anchor="middle" x="169.39" y="-101.3" font-family="Times,serif" font-size="14.00">Walter, Khushi (40)</text>
</g>
<!-- 1001&#45;&gt;1003 -->
<g id="edge3" class="edge">
<title>1001&#45;&gt;1003</title>
<path fill="none" stroke="black" d="M208.34,-260.7C213.51,-239.76 219.8,-203.61 211.39,-174 207.03,-158.64 198.1,-143.35 189.6,-131.17"/>
<polygon fill="black" stroke="black" points="192.28,-128.9 183.55,-122.89 186.62,-133.03 192.28,-128.9"/>
<text text-anchor="middle" x="238.39" y="-188.3" font-family="Times,serif" font-size="14.00">9, 4, 3</text>
</g>
<!-- 1002&#45;&gt;1003 -->
<g id="edge2" class="edge">
<title>1002&#45;&gt;1003</title>
<path fill="none" stroke="black" d="M115.15,-173.8C124.99,-161.51 138.37,-144.77 149.39,-131.01"/>
<polygon fill="black" stroke="black" points="152.37,-132.88 155.88,-122.89 146.9,-128.51 152.37,-132.88"/>
<text text-anchor="middle" x="145.39" y="-144.8" font-family="Times,serif" font-size="14.00">4</text>
</g>
<!-- 1004 -->
<g id="node4" class="node">
<title>1004</title>
<ellipse fill="none" stroke="black" cx="169.39" cy="-18" rx="79.09" ry="18"/>
<text text-anchor="middle" x="169.39" y="-14.3" font-family="Times,serif" font-size="14.00">Ruiz, Rian (56)</text>
</g>
<!-- 1003&#45;&gt;1004 -->
<g id="edge4" class="edge">
<title>1003&#45;&gt;1004</title>
<path fill="none" stroke="black" d="M169.39,-86.8C169.39,-75.16 169.39,-59.55 169.39,-46.24"/>
<polygon fill="black" stroke="black" points="172.89,-46.18 169.39,-36.18 165.89,-46.18 172.89,-46.18"/>
<text text-anchor="middle" x="183.39" y="-57.8" font-family="Times,serif" font-size="14.00">2, 3</text>
</g>
</g>
</svg>
